# xmcd CD database file
#
# Track frame offsets:
#	151
#	14440
#	29477
#	46384
#	64383
#	85336
#	102343
#	118272
#	134505
#	149030
#	161429
#	173984
#	194115
#	209174
#	221489
#
# Disc length: 3158 seconds
#
# Revision: 0
# Processed by: cddbd v1.5.2PL0 Copyright (c) Steve Scherf et al.
# Submitted via: CDex 1.51
#
DISCID=f70c540f
DTITLE=DANIEL SANTOS - 15 EXITOS DANIEL SANTOS
DYEAR=2004
DGENRE=Salsa
TTITLE0=YO NO SE NADA - DANIEL SANTOS
TTITLE1=EL CORNETA - DANIEL SANTOS
TTITLE2=EL BOBO DE LA YUCA - DANIEL SANTOS
TTITLE3=COMO ME DA LA GANA - DANIEL SANTOS
TTITLE4=EL SOFA - DANIEL SANTOS
TTITLE5=LA MUJER DE ANTONIO - DANIEL SANTOS
TTITLE6=SABROSITO - DANIEL SANTOS
TTITLE7=NIÑO MAJADERO - DANIEL SANTOS
TTITLE8=EL PING PONG - DANIEL SANTOS
TTITLE9=TE ENTERASTE YA - DANIEL SANTOS
TTITLE10=NO TE RIAS DE MI - DANIEL SANTOS
TTITLE11=LA MEDIA NARANJA - DANIEL SANTOS
TTITLE12=LA PUNTA DEL PIE - DANIEL SANTOS
TTITLE13=EL CAMPESINO - DANIEL SANTOS
TTITLE14=YO LA MATO - DANIEL SANTOS
EXTD=YEAR: 2004
EXTT0=
EXTT1=
EXTT2=
EXTT3=
EXTT4=
EXTT5=
EXTT6=
EXTT7=
EXTT8=
EXTT9=
EXTT10=
EXTT11=
EXTT12=
EXTT13=
EXTT14=
PLAYORDER=
